<svg width="233" height="116" viewBox="0 0 233 116" fill="none" xmlns="http://www.w3.org/2000/svg">
<g filter="url(#filter0_d_2_8)">
<path d="M191.774 41.6973C186.246 41.6973 181.034 43.0631 176.446 45.4509C171.188 35.7416 160.895 29.1449 149.067 29.1449C144.581 29.1449 140.328 30.1019 136.484 31.8022C130.556 13.6658 113.498 0.55603 93.3586 0.55603C71.0512 0.55603 52.5222 16.639 48.7345 37.8321C45.0584 36.5592 41.1125 35.8624 36.9991 35.8624C17.1114 35.8624 0.983398 51.964 0.983398 71.8192C0.983398 91.6744 17.1114 107.776 36.9991 107.776H191.774C210.051 107.776 224.867 92.9844 224.867 74.7366C224.867 56.4888 210.051 41.6973 191.774 41.6973Z" fill="white" fill-opacity="0.8"/>
</g>
<defs>
<filter id="filter0_d_2_8" x="0.983398" y="0.55603" width="231.884" height="115.22" filterUnits="userSpaceOnUse" color-interpolation-filters="sRGB">
<feFlood flood-opacity="0" result="BackgroundImageFix"/>
<feColorMatrix in="SourceAlpha" type="matrix" values="0 0 0 0 0 0 0 0 0 0 0 0 0 0 0 0 0 0 127 0" result="hardAlpha"/>
<feOffset dx="4" dy="4"/>
<feGaussianBlur stdDeviation="2"/>
<feColorMatrix type="matrix" values="0 0 0 0 0.129167 0 0 0 0 0.129167 0 0 0 0 0.129167 0 0 0 0.1 0"/>
<feBlend mode="normal" in2="BackgroundImageFix" result="effect1_dropShadow_2_8"/>
<feBlend mode="normal" in="SourceGraphic" in2="effect1_dropShadow_2_8" result="shape"/>
</filter>
</defs>
</svg>
